<svg xmlns="http://www.w3.org/2000/svg" viewBox="0 0 100 100">
  <rect width="100" height="100" fill="#5294e2"/>
  <g stroke="#fff" stroke-width="2" fill="none">
    <!-- 9x9 grid -->
    <line x1="11" y1="11" x2="11" y2="89"/>
    <line x1="22" y1="11" x2="22" y2="89"/>
    <line x1="33" y1="11" x2="33" y2="89"/>
    <line x1="44" y1="11" x2="44" y2="89"/>
    <line x1="55" y1="11" x2="55" y2="89"/>
    <line x1="66" y1="11" x2="66" y2="89"/>
    <line x1="77" y1="11" x2="77" y2="89"/>
    <line x1="88" y1="11" x2="88" y2="89"/>

    <line x1="11" y1="11" x2="89" y2="11"/>
    <line x1="11" y1="22" x2="89" y2="22"/>
    <line x1="11" y1="33" x2="89" y2="33"/>
    <line x1="11" y1="44" x2="89" y2="44"/>
    <line x1="11" y1="55" x2="89" y2="55"/>
    <line x1="11" y1="66" x2="89" y2="66"/>
    <line x1="11" y1="77" x2="89" y2="77"/>
    <line x1="11" y1="88" x2="89" y2="88"/>
  </g>
  <rect x="11" y="11" width="78" height="78" fill="none" stroke="#fff" stroke-width="4"/>
  <line x1="33" y1="11" x2="33" y2="89" stroke="#fff" stroke-width="3"/>
  <line x1="66" y1="11" x2="66" y2="89" stroke="#fff" stroke-width="3"/>
  <line x1="11" y1="33" x2="89" y2="33" stroke="#fff" stroke-width="3"/>
  <line x1="11" y1="66" x2="89" y2="66" stroke="#fff" stroke-width="3"/>
</svg>
